<?xml version="1.0" standalone="no"?><!DOCTYPE svg PUBLIC "-//W3C//DTD SVG 1.1//EN" "http://www.w3.org/Graphics/SVG/1.1/DTD/svg11.dtd"><svg t="1623642821536" class="icon" viewBox="0 0 1024 1024" version="1.1" xmlns="http://www.w3.org/2000/svg" p-id="1195" xmlns:xlink="http://www.w3.org/1999/xlink" width="200" height="200"><defs><style type="text/css"></style></defs><path d="M85.333333 532.352A447.061333 447.061333 0 0 1 532.309333 85.333333a446.933333 446.933333 0 0 1 446.976 446.933334 446.890667 446.890667 0 0 1-446.933333 447.018666A446.976 446.976 0 0 1 85.333333 532.352z m59.733334 0a387.370667 387.370667 0 0 0 387.370666 387.370667 387.413333 387.413333 0 0 0 387.370667-387.370667 387.370667 387.370667 0 0 0-387.370667-387.328A387.370667 387.370667 0 0 0 145.066667 532.309333z m360.576 239.616v-275.797333l-150.442667 150.442666a25.941333 25.941333 0 0 1-36.608-1.365333 25.941333 25.941333 0 0 1-1.322667-36.608l195.882667-195.882667 0.298667-0.426666 0.426666-0.298667 1.066667-1.066667a23.338667 23.338667 0 0 1 15.018667-6.4 18.688 18.688 0 0 1 2.56-0.384 15.872 15.872 0 0 1 2.474666 0.384 23.509333 23.509333 0 0 1 15.104 6.4l1.024 1.066667 0.426667 0.298667 0.298667 0.426666 195.882666 195.882667a25.898667 25.898667 0 0 1-1.322666 36.608 25.898667 25.898667 0 0 1-36.608 1.365333l-150.442667-150.442666v275.797333a26.794667 26.794667 0 0 1-26.794667 26.794667 26.794667 26.794667 0 0 1-27.093333-26.837334zM337.578667 359.168a26.837333 26.837333 0 0 1-26.794667-26.88 26.837333 26.837333 0 0 1 26.794667-26.837333h385.493333a26.922667 26.922667 0 0 1 26.837333 26.837333 26.922667 26.922667 0 0 1-26.837333 26.88z" p-id="1196"></path></svg>