<?xml version="1.0" standalone="no"?><!DOCTYPE svg PUBLIC "-//W3C//DTD SVG 1.1//EN" "http://www.w3.org/Graphics/SVG/1.1/DTD/svg11.dtd"><svg t="1607768182815" class="icon" viewBox="0 0 1024 1024" version="1.1" xmlns="http://www.w3.org/2000/svg" p-id="3202" xmlns:xlink="http://www.w3.org/1999/xlink" width="200" height="200"><defs><style type="text/css"></style></defs><path d="M810 960H214c-82.7 0-150-67.3-150-150V214c0-82.7 67.3-150 150-150h596c82.7 0 150 67.3 150 150v596c0 82.7-67.3 150-150 150zM214 124c-23.9 0-46.5 9.4-63.5 26.5-17.1 17-26.5 39.6-26.5 63.5v596c0 23.9 9.4 46.5 26.5 63.5 17.1 17.1 39.6 26.5 63.5 26.5h596c23.9 0 46.5-9.4 63.5-26.5 17.1-17.1 26.5-39.6 26.5-63.5V214c0-23.9-9.4-46.5-26.5-63.5-17-17.1-39.6-26.5-63.5-26.5H214z" fill="#313144" p-id="3203"></path><path d="M730 960.5c-16.6 0-30-13.4-30-30v-837c0-16.6 13.4-30 30-30s30 13.4 30 30v837c0 16.5-13.4 30-30 30zM294 960.5c-16.6 0-30-13.4-30-30v-837c0-16.6 13.4-30 30-30s30 13.4 30 30v837c0 16.5-13.4 30-30 30z" fill="#313144" p-id="3204"></path><path d="M285.3 402.7H99.5c-16.6 0-30-13.4-30-30s13.4-30 30-30h185.8c16.6 0 30 13.4 30 30s-13.5 30-30 30zM285.3 681.3H99.5c-16.6 0-30-13.4-30-30s13.4-30 30-30h185.8c16.6 0 30 13.4 30 30s-13.5 30-30 30zM922.5 402.7H736.8c-16.6 0-30-13.4-30-30s13.4-30 30-30h185.8c16.6 0 30 13.4 30 30s-13.5 30-30.1 30zM922.5 681.3H736.8c-16.6 0-30-13.4-30-30s13.4-30 30-30h185.8c16.6 0 30 13.4 30 30s-13.5 30-30.1 30zM444.4 434l135.2 78-135.2 78V434m0-60c-10.4 0-20.7 2.7-30 8-18.6 10.7-30 30.5-30 52v156c0 21.4 11.4 41.2 30 52 9.3 5.4 19.6 8 30 8s20.7-2.7 30-8l135.2-78c18.6-10.7 30-30.5 30-52s-11.4-41.2-30-52l-135.2-78c-9.3-5.4-19.6-8-30-8z" fill="#313144" p-id="3205"></path></svg>